<svg xmlns="http://www.w3.org/2000/svg" width="96" height="96" viewBox="0 0 96 96" fill="none">
  <defs>
    <linearGradient id="bg" x1="12" y1="8" x2="84" y2="88" gradientUnits="userSpaceOnUse">
      <stop stop-color="#5E7BFF"/>
      <stop offset="1" stop-color="#2D5BFF"/>
    </linearGradient>
    <linearGradient id="panel" x1="30" y1="52" x2="65" y2="85" gradientUnits="userSpaceOnUse">
      <stop stop-color="#6D8BFF"/>
      <stop offset="1" stop-color="#315DFF"/>
    </linearGradient>
    <linearGradient id="ai" x1="33" y1="57" x2="58" y2="81" gradientUnits="userSpaceOnUse">
      <stop stop-color="#F4FCFF"/>
      <stop offset="1" stop-color="#A9E8FF"/>
    </linearGradient>
  </defs>
  <rect x="6" y="6" width="84" height="84" rx="22" fill="url(#bg)"/>
  <circle cx="29" cy="30" r="13" fill="#F8FBFF"/>
  <circle cx="67" cy="30" r="13" fill="#F8FBFF"/>
  <circle cx="31" cy="31" r="7" fill="#B6C8FF"/>
  <circle cx="65" cy="31" r="7" fill="#B6C8FF"/>
  <ellipse cx="48" cy="39" rx="17" ry="15" fill="#F8FBFF"/>
  <circle cx="40.5" cy="38.5" r="6.5" fill="#24376C"/>
  <circle cx="55.5" cy="38.5" r="6.5" fill="#24376C"/>
  <circle cx="40.5" cy="38.5" r="2.4" fill="#fff"/>
  <circle cx="55.5" cy="38.5" r="2.4" fill="#fff"/>
  <ellipse cx="48" cy="46.5" rx="6" ry="7.5" fill="#31467E"/>
  <path d="M25 60c2.5-6.4 8.8-10.5 15.8-10.5h14.4c7 0 13.3 4.1 15.8 10.5" stroke="#F8FBFF" stroke-width="5" stroke-linecap="round"/>
  <path d="M28 54.5V66" stroke="#F8FBFF" stroke-width="5" stroke-linecap="round"/>
  <path d="M68 54.5V66" stroke="#F8FBFF" stroke-width="5" stroke-linecap="round"/>
  <path d="M26 54h44l-4 24H30L26 54Z" fill="url(#panel)" stroke="#98B7FF" stroke-width="2"/>
  <path d="M42.3 72h-5.1l-1.4-4.1h-6.5L27.8 72h-5l6.8-18.8h5.9L42.3 72Zm-7.6-7.9-2-6.1-2.1 6.1h4.1Z" fill="url(#ai)"/>
  <path d="M46.5 53.2h5V72h-5V53.2Zm9.1 0h5V67.8h8.2V72H55.6V53.2Z" fill="url(#ai)"/>
</svg>
